<svg id="visual" viewBox="0 0 497 658" width="497" height="658" xmlns="http://www.w3.org/2000/svg" xmlns:xlink="http://www.w3.org/1999/xlink" version="1.1"><rect x="0" y="0" width="497" height="658" fill="#001220"></rect><path d="M0 324L7.5 338C15 352 30 380 45 387C60 394 75 380 90.2 369.5C105.3 359 120.7 352 135.8 340C151 328 166 311 181 320.7C196 330.3 211 366.7 226 375.3C241 384 256 365 271 366.8C286 368.7 301 391.3 316 397.3C331 403.3 346 392.7 361.2 374.2C376.3 355.7 391.7 329.3 406.8 336C422 342.7 437 382.3 452 389.2C467 396 482 370 489.5 357L497 344L497 659L489.5 659C482 659 467 659 452 659C437 659 422 659 406.8 659C391.7 659 376.3 659 361.2 659C346 659 331 659 316 659C301 659 286 659 271 659C256 659 241 659 226 659C211 659 196 659 181 659C166 659 151 659 135.8 659C120.7 659 105.3 659 90.2 659C75 659 60 659 45 659C30 659 15 659 7.5 659L0 659Z" fill="#a122d8"></path><path d="M0 361L7.5 359.3C15 357.7 30 354.3 45 359.7C60 365 75 379 90.2 379.5C105.3 380 120.7 367 135.8 359.5C151 352 166 350 181 360.2C196 370.3 211 392.7 226 409C241 425.3 256 435.7 271 422.2C286 408.7 301 371.3 316 359.7C331 348 346 362 361.2 378.3C376.3 394.7 391.7 413.3 406.8 410.5C422 407.7 437 383.3 452 375.5C467 367.7 482 376.3 489.5 380.7L497 385L497 659L489.5 659C482 659 467 659 452 659C437 659 422 659 406.8 659C391.7 659 376.3 659 361.2 659C346 659 331 659 316 659C301 659 286 659 271 659C256 659 241 659 226 659C211 659 196 659 181 659C166 659 151 659 135.8 659C120.7 659 105.3 659 90.2 659C75 659 60 659 45 659C30 659 15 659 7.5 659L0 659Z" fill="#901db9"></path><path d="M0 484L7.5 469.5C15 455 30 426 45 427.2C60 428.3 75 459.7 90.2 472.2C105.3 484.7 120.7 478.3 135.8 478C151 477.7 166 483.3 181 477C196 470.7 211 452.3 226 452.2C241 452 256 470 271 471.2C286 472.3 301 456.7 316 440.2C331 423.7 346 406.3 361.2 405.2C376.3 404 391.7 419 406.8 427.7C422 436.3 437 438.7 452 444.3C467 450 482 459 489.5 463.5L497 468L497 659L489.5 659C482 659 467 659 452 659C437 659 422 659 406.8 659C391.7 659 376.3 659 361.2 659C346 659 331 659 316 659C301 659 286 659 271 659C256 659 241 659 226 659C211 659 196 659 181 659C166 659 151 659 135.8 659C120.7 659 105.3 659 90.2 659C75 659 60 659 45 659C30 659 15 659 7.5 659L0 659Z" fill="#7f1a9c"></path><path d="M0 487L7.5 488.5C15 490 30 493 45 485.2C60 477.3 75 458.7 90.2 462.7C105.3 466.7 120.7 493.3 135.8 503.3C151 513.3 166 506.7 181 492C196 477.3 211 454.7 226 450.7C241 446.7 256 461.3 271 462.3C286 463.3 301 450.7 316 446C331 441.3 346 444.7 361.2 454.3C376.3 464 391.7 480 406.8 488.7C422 497.3 437 498.7 452 490.2C467 481.7 482 463.3 489.5 454.2L497 445L497 659L489.5 659C482 659 467 659 452 659C437 659 422 659 406.8 659C391.7 659 376.3 659 361.2 659C346 659 331 659 316 659C301 659 286 659 271 659C256 659 241 659 226 659C211 659 196 659 181 659C166 659 151 659 135.8 659C120.7 659 105.3 659 90.2 659C75 659 60 659 45 659C30 659 15 659 7.5 659L0 659Z" fill="#6d1780"></path><path d="M0 548L7.5 550.7C15 553.3 30 558.7 45 549.3C60 540 75 516 90.2 515.3C105.3 514.7 120.7 537.3 135.8 535.3C151 533.3 166 506.7 181 497.2C196 487.7 211 495.3 226 506.8C241 518.3 256 533.7 271 530C286 526.3 301 503.7 316 502.7C331 501.7 346 522.3 361.2 525.7C376.3 529 391.7 515 406.8 507.8C422 500.7 437 500.3 452 498.5C467 496.7 482 493.3 489.5 491.7L497 490L497 659L489.5 659C482 659 467 659 452 659C437 659 422 659 406.8 659C391.7 659 376.3 659 361.2 659C346 659 331 659 316 659C301 659 286 659 271 659C256 659 241 659 226 659C211 659 196 659 181 659C166 659 151 659 135.8 659C120.7 659 105.3 659 90.2 659C75 659 60 659 45 659C30 659 15 659 7.5 659L0 659Z" fill="#5a1566"></path><path d="M0 578L7.5 571.3C15 564.7 30 551.3 45 550.3C60 549.3 75 560.7 90.2 567.8C105.3 575 120.7 578 135.8 570.8C151 563.7 166 546.3 181 548C196 549.7 211 570.3 226 572.8C241 575.3 256 559.7 271 548.2C286 536.7 301 529.3 316 532C331 534.7 346 547.3 361.2 551.2C376.3 555 391.7 550 406.8 553.7C422 557.3 437 569.7 452 578C467 586.3 482 590.7 489.5 592.8L497 595L497 659L489.5 659C482 659 467 659 452 659C437 659 422 659 406.8 659C391.7 659 376.3 659 361.2 659C346 659 331 659 316 659C301 659 286 659 271 659C256 659 241 659 226 659C211 659 196 659 181 659C166 659 151 659 135.8 659C120.7 659 105.3 659 90.2 659C75 659 60 659 45 659C30 659 15 659 7.5 659L0 659Z" fill="#48134e"></path><path d="M0 622L7.5 620C15 618 30 614 45 611.2C60 608.3 75 606.7 90.2 607.5C105.3 608.3 120.7 611.7 135.8 611.8C151 612 166 609 181 605.3C196 601.7 211 597.3 226 598.5C241 599.7 256 606.3 271 607.3C286 608.3 301 603.7 316 598.3C331 593 346 587 361.2 586C376.3 585 391.7 589 406.8 592C422 595 437 597 452 593.7C467 590.3 482 581.7 489.5 577.3L497 573L497 659L489.5 659C482 659 467 659 452 659C437 659 422 659 406.8 659C391.7 659 376.3 659 361.2 659C346 659 331 659 316 659C301 659 286 659 271 659C256 659 241 659 226 659C211 659 196 659 181 659C166 659 151 659 135.8 659C120.7 659 105.3 659 90.2 659C75 659 60 659 45 659C30 659 15 659 7.5 659L0 659Z" fill="#351137"></path></svg>